<?xml version="1.0" encoding="UTF-8"?>
<!DOCTYPE svg PUBLIC "-//W3C//DTD SVG 1.1//EN" "http://www.w3.org/Graphics/SVG/1.1/DTD/svg11.dtd">
<svg xmlns="http://www.w3.org/2000/svg" version="1.1" width="50px" height="50px" style="shape-rendering:geometricPrecision; text-rendering:geometricPrecision; image-rendering:optimizeQuality; fill-rule:evenodd; clip-rule:evenodd" xmlns:xlink="http://www.w3.org/1999/xlink">
<g><path style="opacity:0.989" fill="#3fbf56" d="M 18.5,-0.5 C 24.1667,-0.5 29.8333,-0.5 35.5,-0.5C 35.5,4.16667 35.5,8.83333 35.5,13.5C 40.1667,13.5 44.8333,13.5 49.5,13.5C 49.5,22.8333 49.5,32.1667 49.5,41.5C 43.8333,41.5 38.1667,41.5 32.5,41.5C 32.6663,34.1591 32.4997,26.8258 32,19.5C 31.6174,18.944 31.1174,18.6107 30.5,18.5C 30.5,17.8333 30.1667,17.5 29.5,17.5C 29.5,16.8333 29.1667,16.5 28.5,16.5C 28.5,15.8333 28.1667,15.5 27.5,15.5C 27.5,14.8333 27.1667,14.5 26.5,14.5C 26.5,13.8333 26.1667,13.5 25.5,13.5C 25.5,12.8333 25.1667,12.5 24.5,12.5C 24.5,11.8333 24.1667,11.5 23.5,11.5C 23.5,10.8333 23.1667,10.5 22.5,10.5C 22.5,9.83333 22.1667,9.5 21.5,9.5C 21.5,8.83333 21.1667,8.5 20.5,8.5C 20.5,7.83333 20.1667,7.5 19.5,7.5C 18.612,4.94551 18.2786,2.27884 18.5,-0.5 Z"/></g>
<g><path style="opacity:0.858" fill="#3fbf56" d="M 37.5,-0.5 C 37.8333,-0.5 38.1667,-0.5 38.5,-0.5C 41.8333,3.5 45.5,7.16667 49.5,10.5C 49.5,10.8333 49.5,11.1667 49.5,11.5C 45.5,11.5 41.5,11.5 37.5,11.5C 37.5,7.5 37.5,3.5 37.5,-0.5 Z"/></g>
<g><path style="opacity:1" fill="#40c056" d="M -0.5,7.5 C 5.16667,7.5 10.8333,7.5 16.5,7.5C 16.5,12.1667 16.5,16.8333 16.5,21.5C 21.1667,21.5 25.8333,21.5 30.5,21.5C 30.5,30.8333 30.5,40.1667 30.5,49.5C 20.1667,49.5 9.83333,49.5 -0.5,49.5C -0.5,35.5 -0.5,21.5 -0.5,7.5 Z"/></g>
<g><path style="opacity:0.848" fill="#3fbf56" d="M 19.5,7.5 C 20.1667,7.5 20.5,7.83333 20.5,8.5C 21.1667,8.5 21.5,8.83333 21.5,9.5C 22.1667,9.5 22.5,9.83333 22.5,10.5C 23.1667,10.5 23.5,10.8333 23.5,11.5C 24.1667,11.5 24.5,11.8333 24.5,12.5C 25.1667,12.5 25.5,12.8333 25.5,13.5C 26.1667,13.5 26.5,13.8333 26.5,14.5C 27.1667,14.5 27.5,14.8333 27.5,15.5C 28.1667,15.5 28.5,15.8333 28.5,16.5C 29.1667,16.5 29.5,16.8333 29.5,17.5C 30.1667,17.5 30.5,17.8333 30.5,18.5C 26.7016,19.4834 22.7016,19.8168 18.5,19.5C 18.1832,15.2984 18.5166,11.2984 19.5,7.5 Z"/></g>
</svg>
