<?xml version="1.0" encoding="UTF-8"?>
<!DOCTYPE svg PUBLIC "-//W3C//DTD SVG 1.1//EN" "http://www.w3.org/Graphics/SVG/1.1/DTD/svg11.dtd">
<svg xmlns="http://www.w3.org/2000/svg" version="1.1" width="50px" height="50px" style="shape-rendering:geometricPrecision; text-rendering:geometricPrecision; image-rendering:optimizeQuality; fill-rule:evenodd; clip-rule:evenodd" xmlns:xlink="http://www.w3.org/1999/xlink">
<g><path style="opacity:0.954" fill="#191919" d="M 18.5,2.5 C 34.6538,0.486566 41.4872,7.48657 39,23.5C 36.6078,26.228 34.6078,29.228 33,32.5C 32.5065,34.1341 32.3398,35.8008 32.5,37.5C 30.1667,37.5 27.8333,37.5 25.5,37.5C 24.8333,16.1667 24.1667,16.1667 23.5,37.5C 21.1667,37.5 18.8333,37.5 16.5,37.5C 16.6602,35.8008 16.4935,34.1341 16,32.5C 9.476,25.9267 7.80933,18.26 11,9.5C 13.0147,6.58828 15.5147,4.25495 18.5,2.5 Z"/></g>
<g><path style="opacity:0.963" fill="#1a1a1a" d="M 16.5,39.5 C 21.8333,39.5 27.1667,39.5 32.5,39.5C 32.5,41.5 32.5,43.5 32.5,45.5C 29.6798,46.1963 27.0132,47.1963 24.5,48.5C 21.9868,47.1963 19.3202,46.1963 16.5,45.5C 16.5,43.5 16.5,41.5 16.5,39.5 Z"/></g>
</svg>
