<?xml version="1.0" encoding="UTF-8"?>
<!DOCTYPE svg PUBLIC "-//W3C//DTD SVG 1.1//EN" "http://www.w3.org/Graphics/SVG/1.1/DTD/svg11.dtd">
<svg xmlns="http://www.w3.org/2000/svg" version="1.1" width="50px" height="50px" style="shape-rendering:geometricPrecision; text-rendering:geometricPrecision; image-rendering:optimizeQuality; fill-rule:evenodd; clip-rule:evenodd" xmlns:xlink="http://www.w3.org/1999/xlink">
<g><path style="opacity:0.969" fill="#40c056" d="M 49.5,34.5 C 49.5,37.8333 49.5,41.1667 49.5,44.5C 47.8333,46.1667 46.1667,47.8333 44.5,49.5C 41.1667,49.5 37.8333,49.5 34.5,49.5C 34.3893,48.8826 34.056,48.3826 33.5,48C 25.1733,47.5003 16.84,47.3336 8.5,47.5C 9.1232,33.988 8.45653,20.6547 6.5,7.5C 10.1073,6.51078 13.774,6.17744 17.5,6.5C 17.5,4.83333 17.5,3.16667 17.5,1.5C 22.1667,1.5 26.8333,1.5 31.5,1.5C 31.5,3.16667 31.5,4.83333 31.5,6.5C 35.226,6.17744 38.8927,6.51078 42.5,7.5C 40.5838,14.6237 39.9171,21.9571 40.5,29.5C 44.2219,29.8611 47.2219,31.5278 49.5,34.5 Z M 20.5,3.5 C 23.1873,3.33591 25.854,3.50258 28.5,4C 28.9574,4.41395 29.2907,4.91395 29.5,5.5C 26.1667,6.83333 22.8333,6.83333 19.5,5.5C 19.8627,4.81654 20.1961,4.14987 20.5,3.5 Z M 17.5,14.5 C 18.8248,18.2762 19.4915,22.4428 19.5,27C 19.1667,31.1667 18.8333,35.3333 18.5,39.5C 17.5021,31.1932 17.1688,22.8599 17.5,14.5 Z M 23.5,14.5 C 24.8248,18.2762 25.4915,22.4428 25.5,27C 25.1667,31.1667 24.8333,35.3333 24.5,39.5C 23.5021,31.1932 23.1688,22.8599 23.5,14.5 Z M 29.5,14.5 C 30.8182,17.2575 31.4848,20.4242 31.5,24C 31.6302,27.6841 31.1302,31.1841 30,34.5C 29.5004,27.8417 29.3337,21.175 29.5,14.5 Z M 44.5,34.5 C 42.5165,34.3832 40.8498,35.0499 39.5,36.5C 38.1502,35.0499 36.4835,34.3832 34.5,34.5C 37.8333,31.8333 41.1667,31.8333 44.5,34.5 Z M 34.5,34.5 C 34.3832,36.4835 35.0499,38.1502 36.5,39.5C 35.0499,40.8498 34.3832,42.5165 34.5,44.5C 31.8333,41.1667 31.8333,37.8333 34.5,34.5 Z M 44.5,34.5 C 47.1667,37.8333 47.1667,41.1667 44.5,44.5C 44.6168,42.5165 43.9501,40.8498 42.5,39.5C 43.9501,38.1502 44.6168,36.4835 44.5,34.5 Z M 44.5,44.5 C 41.1667,47.1667 37.8333,47.1667 34.5,44.5C 36.4835,44.6168 38.1502,43.9501 39.5,42.5C 40.8498,43.9501 42.5165,44.6168 44.5,44.5 Z"/></g>
<g><path style="opacity:0.85" fill="#3fbf56" d="M 34.5,34.5 C 36.4835,34.3832 38.1502,35.0499 39.5,36.5C 40.8498,35.0499 42.5165,34.3832 44.5,34.5C 44.6168,36.4835 43.9501,38.1502 42.5,39.5C 43.9501,40.8498 44.6168,42.5165 44.5,44.5C 42.5165,44.6168 40.8498,43.9501 39.5,42.5C 38.1502,43.9501 36.4835,44.6168 34.5,44.5C 34.3832,42.5165 35.0499,40.8498 36.5,39.5C 35.0499,38.1502 34.3832,36.4835 34.5,34.5 Z"/></g>
</svg>
