<?xml version="1.0" encoding="UTF-8"?>
<!DOCTYPE svg PUBLIC "-//W3C//DTD SVG 1.1//EN" "http://www.w3.org/Graphics/SVG/1.1/DTD/svg11.dtd">
<svg xmlns="http://www.w3.org/2000/svg" version="1.1" width="64px" height="64px" style="shape-rendering:geometricPrecision; text-rendering:geometricPrecision; image-rendering:optimizeQuality; fill-rule:evenodd; clip-rule:evenodd" xmlns:xlink="http://www.w3.org/1999/xlink">
<g><path style="opacity:0.934" fill="#3fc057" d="M 30.5,1.5 C 32.7157,2.20261 34.549,3.53594 36,5.5C 37.6667,4.5 39.3333,3.5 41,2.5C 42.2915,4.2487 43.4582,6.08204 44.5,8C 46.4884,8.1805 48.4884,8.01383 50.5,7.5C 49.7416,12.8042 52.0749,15.6376 57.5,16C 56.8333,17.6667 56.1667,19.3333 55.5,21C 57.2077,22.5095 58.8744,24.0095 60.5,25.5C 59.7515,27.3325 58.7515,28.9991 57.5,30.5C 58.7515,32.0009 59.7515,33.6675 60.5,35.5C 58.8744,36.9905 57.2077,38.4905 55.5,40C 56.1667,41.6667 56.8333,43.3333 57.5,45C 52.0749,45.3624 49.7416,48.1958 50.5,53.5C 48.4884,52.9862 46.4884,52.8195 44.5,53C 43.4582,54.918 42.2915,56.7513 41,58.5C 39.3333,57.5 37.6667,56.5 36,55.5C 34.6487,57.019 33.1487,58.3523 31.5,59.5C 29.8513,58.3523 28.3513,57.019 27,55.5C 25.3333,56.5 23.6667,57.5 22,58.5C 20.7085,56.7513 19.5418,54.918 18.5,53C 16.5116,52.8195 14.5116,52.9862 12.5,53.5C 13.2584,48.1958 10.9251,45.3624 5.5,45C 6.16667,43.3333 6.83333,41.6667 7.5,40C 5.79232,38.4905 4.12565,36.9905 2.5,35.5C 3.24848,33.6675 4.24848,32.0009 5.5,30.5C 4.24848,28.9991 3.24848,27.3325 2.5,25.5C 4.12565,24.0095 5.79232,22.5095 7.5,21C 6.83333,19.3333 6.16667,17.6667 5.5,16C 10.9251,15.6376 13.2584,12.8042 12.5,7.5C 14.5116,8.01383 16.5116,8.1805 18.5,8C 19.5418,6.08204 20.7085,4.2487 22,2.5C 25.5461,6.63804 28.3794,6.3047 30.5,1.5 Z M 26.5,14.5 C 42.6028,13.4309 49.4362,20.7643 47,36.5C 41.7481,46.0316 33.9148,48.865 23.5,45C 13.091,37.0345 12.091,28.0345 20.5,18C 22.4319,16.5415 24.4319,15.3748 26.5,14.5 Z"/></g>
<g><path style="opacity:0.818" fill="#3fc056" d="M 16.5,25.5 C 18.3904,25.2965 19.8904,25.9632 21,27.5C 22.049,25.8934 23.549,25.2267 25.5,25.5C 25.5,28.8333 25.5,32.1667 25.5,35.5C 22.7615,36.0352 20.9282,35.0352 20,32.5C 19.5172,33.448 19.3505,34.448 19.5,35.5C 18.5,35.5 17.5,35.5 16.5,35.5C 16.5,32.1667 16.5,28.8333 16.5,25.5 Z"/></g>
<g><path style="opacity:0.742" fill="#3fc057" d="M 26.5,25.5 C 30.1667,25.5 33.8333,25.5 37.5,25.5C 37.8333,29.5 38.1667,29.5 38.5,25.5C 40.451,25.2267 41.951,25.8934 43,27.5C 43.7096,26.0267 44.8762,25.3601 46.5,25.5C 46.1667,28.8333 45.8333,32.1667 45.5,35.5C 43.0194,35.6766 41.1861,34.6766 40,32.5C 39.5172,33.448 39.3505,34.448 39.5,35.5C 38.1667,35.5 36.8333,35.5 35.5,35.5C 35.477,33.0733 34.977,30.74 34,28.5C 33.5172,29.448 33.3505,30.448 33.5,31.5C 28.5,32.0031 28.8333,32.3364 34.5,32.5C 34.5,33.5 34.5,34.5 34.5,35.5C 31.8333,35.5 29.1667,35.5 26.5,35.5C 26.5,32.1667 26.5,28.8333 26.5,25.5 Z"/></g>
</svg>
