<?xml version="1.0" encoding="UTF-8"?>
<!DOCTYPE svg PUBLIC "-//W3C//DTD SVG 1.1//EN" "http://www.w3.org/Graphics/SVG/1.1/DTD/svg11.dtd">
<svg xmlns="http://www.w3.org/2000/svg" version="1.1" width="94px" height="94px" style="shape-rendering:geometricPrecision; text-rendering:geometricPrecision; image-rendering:optimizeQuality; fill-rule:evenodd; clip-rule:evenodd" xmlns:xlink="http://www.w3.org/1999/xlink">
<g><path style="opacity:0.004" fill="#777474" d="M 48.5,5.5 C 49.8333,6.16667 49.8333,6.16667 48.5,5.5 Z"/></g>
<g><path style="opacity:0.989" fill="#868889" d="M 48.5,6.5 C 49.8062,7.46739 50.4729,8.80072 50.5,10.5C 50.3505,11.552 50.5172,12.552 51,13.5C 55.8333,17 60,21.1667 63.5,26C 65.76,27.7883 68.0934,29.2883 70.5,30.5C 68.7085,30.634 67.0418,30.3007 65.5,29.5C 65.1667,28.5 64.5,27.8333 63.5,27.5C 63.1667,27.5 62.8333,27.5 62.5,27.5C 62.5,26.8333 62.1667,26.5 61.5,26.5C 60.8333,25.5 60.1667,24.5 59.5,23.5C 56.8338,20.0012 53.6671,17.0012 50,14.5C 49.6667,13.5 49.3333,12.5 49,11.5C 47.5557,13.1554 45.7224,13.822 43.5,13.5C 43.4431,12.391 43.1098,11.391 42.5,10.5C 43.1216,7.22441 45.1216,5.89108 48.5,6.5 Z"/></g>
<g><path style="opacity:0.384" fill="#5c5f51" d="M 59.5,23.5 C 57.9382,23.2671 56.6049,22.6005 55.5,21.5C 55.5,20.8333 55.1667,20.5 54.5,20.5C 52.8767,19.2206 51.21,17.8872 49.5,16.5C 47.5,17.8333 45.5,17.8333 43.5,16.5C 40.097,19.1859 36.7637,21.8526 33.5,24.5C 32.8333,24.5 32.5,24.8333 32.5,25.5C 31.8333,25.5 31.5,25.8333 31.5,26.5C 30.8333,26.5 30.5,26.8333 30.5,27.5C 30.1667,27.5 29.8333,27.5 29.5,27.5C 28.5,27.8333 27.8333,28.5 27.5,29.5C 26.8333,29.5 26.5,29.8333 26.5,30.5C 25.1667,30.5 23.8333,30.5 22.5,30.5C 29.2104,24.4543 36.2104,18.7876 43.5,13.5C 45.7224,13.822 47.5557,13.1554 49,11.5C 49.3333,12.5 49.6667,13.5 50,14.5C 53.6671,17.0012 56.8338,20.0012 59.5,23.5 Z"/></g>
<g><path style="opacity:0.741" fill="#dddee0" d="M 42.5,10.5 C 43.1098,11.391 43.4431,12.391 43.5,13.5C 36.2104,18.7876 29.2104,24.4543 22.5,30.5C 20.901,30.7678 19.5676,30.4345 18.5,29.5C 26.5,23.1667 34.5,16.8333 42.5,10.5 Z"/></g>
<g><path style="opacity:0.012" fill="#808483" d="M 54.5,20.5 C 55.1667,20.5 55.5,20.8333 55.5,21.5C 54.5029,22.7125 53.5029,22.5458 52.5,21C 53.0944,20.5357 53.7611,20.369 54.5,20.5 Z"/></g>
<g><path style="opacity:0.004" fill="#565e4f" d="M 33.5,24.5 C 35.7929,25.3013 35.4596,25.968 32.5,26.5C 32.5,26.1667 32.5,25.8333 32.5,25.5C 33.1667,25.5 33.5,25.1667 33.5,24.5 Z"/></g>
<g><path style="opacity:1" fill="#c3c3c9" d="M 50.5,10.5 C 57.8333,16.1667 65.1667,21.8333 72.5,27.5C 73.1667,28.1667 73.8333,28.8333 74.5,29.5C 73.4324,30.4345 72.099,30.7678 70.5,30.5C 68.0934,29.2883 65.76,27.7883 63.5,26C 60,21.1667 55.8333,17 51,13.5C 50.5172,12.552 50.3505,11.552 50.5,10.5 Z"/></g>
<g><path style="opacity:0.016" fill="#cfd0d4" d="M 72.5,26.5 C 73.8333,27.1667 73.8333,27.1667 72.5,26.5 Z"/></g>
<g><path style="opacity:0.004" fill="#3bd95a" d="M 31.5,26.5 C 31.8333,26.5 32.1667,26.5 32.5,26.5C 42.0684,27.8165 51.7351,27.8165 61.5,26.5C 62.1667,26.5 62.5,26.8333 62.5,27.5C 62.8333,27.5 63.1667,27.5 63.5,27.5C 52.1667,28.8333 40.8333,28.8333 29.5,27.5C 29.8333,27.5 30.1667,27.5 30.5,27.5C 31.1667,27.5 31.5,27.1667 31.5,26.5 Z"/></g>
<g><path style="opacity:0.004" fill="#7fc38e" d="M 87.5,31.5 C 86.8333,30.1667 86.8333,30.1667 87.5,31.5 Z"/></g>
<g><path style="opacity:0.999" fill="#7beaaa" d="M 18.5,29.5 C 19.5676,30.4345 20.901,30.7678 22.5,30.5C 23.8333,30.5 25.1667,30.5 26.5,30.5C 34.8749,30.3162 43.2082,30.8162 51.5,32C 44.5,32.1667 37.5,32.3333 30.5,32.5C 22.9315,32.4648 15.5982,31.7981 8.5,30.5C 7.53705,29.6365 7.53705,28.9698 8.5,28.5C 11.7577,29.4173 15.091,29.7507 18.5,29.5 Z"/></g>
<g><path style="opacity:0.997" fill="#31d26c" d="M 84.5,30.5 C 84.5,31.1667 84.5,31.8333 84.5,32.5C 83.8333,32.8333 83.1667,33.1667 82.5,33.5C 78.5,33.5 74.5,33.5 70.5,33.5C 66.1667,33.5 61.8333,33.5 57.5,33.5C 55.1667,33.5 52.8333,33.5 50.5,33.5C 47.5,33.5 44.5,33.5 41.5,33.5C 30.1667,33.5 18.8333,33.5 7.5,33.5C 7.5,32.8333 7.5,32.1667 7.5,31.5C 7.5,30.8333 7.83333,30.5 8.5,30.5C 15.5982,31.7981 22.9315,32.4648 30.5,32.5C 37.5,32.3333 44.5,32.1667 51.5,32C 43.2082,30.8162 34.8749,30.3162 26.5,30.5C 26.5,29.8333 26.8333,29.5 27.5,29.5C 40.1667,29.5 52.8333,29.5 65.5,29.5C 67.0418,30.3007 68.7085,30.634 70.5,30.5C 72.099,30.7678 73.4324,30.4345 74.5,29.5C 77.909,29.7507 81.2423,29.4173 84.5,28.5C 85.463,28.9698 85.463,29.6365 84.5,30.5 Z"/></g>
<g><path style="opacity:0.999" fill="#14d461" d="M 7.5,34.5 C 7.5,34.1667 7.5,33.8333 7.5,33.5C 18.8333,33.5 30.1667,33.5 41.5,33.5C 31.2439,37.4282 20.5772,38.7615 9.5,37.5C 9.05758,36.2613 8.39092,35.2613 7.5,34.5 Z"/></g>
<g><path style="opacity:1" fill="#15ca52" d="M 41.5,33.5 C 44.5,33.5 47.5,33.5 50.5,33.5C 42.7884,36.4323 34.7884,38.7656 26.5,40.5C 26.1667,40.8333 25.8333,41.1667 25.5,41.5C 26.802,43.2012 28.4687,44.3678 30.5,45C 29.944,45.3826 29.6107,45.8826 29.5,46.5C 23.5176,42.876 19.1843,44.2094 16.5,50.5C 14.6822,55.2481 11.6822,56.2481 7.5,53.5C 7.5,47.1667 7.5,40.8333 7.5,34.5C 8.39092,35.2613 9.05758,36.2613 9.5,37.5C 20.5772,38.7615 31.2439,37.4282 41.5,33.5 Z"/></g>
<g><path style="opacity:1" fill="#1aca53" d="M 50.5,33.5 C 52.8333,33.5 55.1667,33.5 57.5,33.5C 51.3293,36.1395 44.996,38.6395 38.5,41C 41.6173,41.9626 43.9506,43.7959 45.5,46.5C 42.0388,44.9089 38.3721,44.2422 34.5,44.5C 34.5,49.8333 34.5,55.1667 34.5,60.5C 33.9819,57.0214 32.9819,53.6881 31.5,50.5C 31.2671,48.9382 30.6005,47.6049 29.5,46.5C 29.6107,45.8826 29.944,45.3826 30.5,45C 28.4687,44.3678 26.802,43.2012 25.5,41.5C 25.8333,41.1667 26.1667,40.8333 26.5,40.5C 34.7884,38.7656 42.7884,36.4323 50.5,33.5 Z"/></g>
<g><path style="opacity:1" fill="#13bd43" d="M 70.5,33.5 C 74.5,33.5 78.5,33.5 82.5,33.5C 81.6521,35.0931 80.3187,36.2597 78.5,37C 74.3517,37.6606 70.3517,38.8272 66.5,40.5C 65.5481,42.0453 65.2148,43.712 65.5,45.5C 63.9582,44.6993 62.2915,44.366 60.5,44.5C 60.5,45.5 60.5,46.5 60.5,47.5C 59.8333,47.1667 59.1667,46.8333 58.5,46.5C 58.5,45.8333 58.5,45.1667 58.5,44.5C 58.2865,42.8561 58.6198,41.3561 59.5,40C 63.1031,37.4693 66.7697,35.3026 70.5,33.5 Z"/></g>
<g><path style="opacity:1" fill="#14ad35" d="M 84.5,32.5 C 85.1239,32.9169 85.4573,33.5836 85.5,34.5C 84.2889,39.4325 83.6222,44.4325 83.5,49.5C 79.693,50.2259 77.0263,48.8926 75.5,45.5C 74.4324,44.5655 73.099,44.2322 71.5,44.5C 72.3517,55.7578 70.3517,56.0911 65.5,45.5C 65.2148,43.712 65.5481,42.0453 66.5,40.5C 70.3517,38.8272 74.3517,37.6606 78.5,37C 80.3187,36.2597 81.6521,35.0931 82.5,33.5C 83.1667,33.1667 83.8333,32.8333 84.5,32.5 Z"/></g>
<g><path style="opacity:1" fill="#14c449" d="M 57.5,33.5 C 61.8333,33.5 66.1667,33.5 70.5,33.5C 66.7697,35.3026 63.1031,37.4693 59.5,40C 58.6198,41.3561 58.2865,42.8561 58.5,44.5C 55.1667,44.5 51.8333,44.5 48.5,44.5C 48.5,46.8333 48.5,49.1667 48.5,51.5C 47.8333,51.1667 47.1667,50.8333 46.5,50.5C 46.1667,49.1667 45.8333,47.8333 45.5,46.5C 43.9506,43.7959 41.6173,41.9626 38.5,41C 44.996,38.6395 51.3293,36.1395 57.5,33.5 Z"/></g>
<g><path style="opacity:1" fill="#d8dddb" d="M 29.5,46.5 C 30.6005,47.6049 31.2671,48.9382 31.5,50.5C 31.9916,59.105 27.9916,62.2717 19.5,60C 16.8144,57.4537 15.8144,54.287 16.5,50.5C 19.1843,44.2094 23.5176,42.876 29.5,46.5 Z"/></g>
<g><path style="opacity:1" fill="#d5dad8" d="M 45.5,46.5 C 45.8333,47.8333 46.1667,49.1667 46.5,50.5C 45.413,54.5727 42.7464,56.2394 38.5,55.5C 38.5,57.5 38.5,59.5 38.5,61.5C 37.1667,61.5 35.8333,61.5 34.5,61.5C 34.5,61.1667 34.5,60.8333 34.5,60.5C 34.5,55.1667 34.5,49.8333 34.5,44.5C 38.3721,44.2422 42.0388,44.9089 45.5,46.5 Z"/></g>
<g><path style="opacity:1" fill="#279833" d="M 38.5,48.5 C 39.8333,48.5 41.1667,48.5 42.5,48.5C 42.8333,51.5 41.5,52.8333 38.5,52.5C 38.5,51.1667 38.5,49.8333 38.5,48.5 Z"/></g>
<g><path style="opacity:0.016" fill="#137213" d="M 87.5,31.5 C 88.6607,45.3272 88.8273,59.3272 88,73.5C 87.5001,59.504 87.3334,45.504 87.5,31.5 Z"/></g>
<g><path style="opacity:1" fill="#ced6d2" d="M 65.5,45.5 C 70.3517,56.0911 72.3517,55.7578 71.5,44.5C 73.099,44.2322 74.4324,44.5655 75.5,45.5C 75.5,50.8333 75.5,56.1667 75.5,61.5C 72.9228,61.5449 70.9228,60.5449 69.5,58.5C 64.9143,47.9649 63.2476,48.9649 64.5,61.5C 63.1667,61.5 61.8333,61.5 60.5,61.5C 60.5,56.8333 60.5,52.1667 60.5,47.5C 60.5,46.5 60.5,45.5 60.5,44.5C 62.2915,44.366 63.9582,44.6993 65.5,45.5 Z"/></g>
<g><path style="opacity:1" fill="#1ca331" d="M 22.5,47.5 C 24.3904,47.2965 25.8904,47.9632 27,49.5C 27.769,52.0991 27.6023,54.5991 26.5,57C 24.5594,57.7429 22.7261,57.5762 21,56.5C 20.068,53.1769 20.568,50.1769 22.5,47.5 Z"/></g>
<g><path style="opacity:1" fill="#d2d9d5" d="M 58.5,44.5 C 58.5,45.1667 58.5,45.8333 58.5,46.5C 56.7354,47.4614 54.7354,47.7947 52.5,47.5C 52.5,48.8333 52.5,50.1667 52.5,51.5C 54.1667,51.5 55.8333,51.5 57.5,51.5C 57.5,52.5 57.5,53.5 57.5,54.5C 55.8333,54.5 54.1667,54.5 52.5,54.5C 52.5,55.5 52.5,56.5 52.5,57.5C 54.5,57.5 56.5,57.5 58.5,57.5C 58.5,58.8333 58.5,60.1667 58.5,61.5C 55.5,61.5 52.5,61.5 49.5,61.5C 48.5206,58.3752 48.1872,55.0419 48.5,51.5C 48.5,49.1667 48.5,46.8333 48.5,44.5C 51.8333,44.5 55.1667,44.5 58.5,44.5 Z"/></g>
<g><path style="opacity:0.016" fill="#156417" d="M 4.5,31.5 C 5.66068,45.3272 5.82734,59.3272 5,73.5C 4.50009,59.504 4.33343,45.504 4.5,31.5 Z"/></g>
<g><path style="opacity:0.999" fill="#107114" d="M 84.5,30.5 C 85.1667,30.8333 85.8333,31.1667 86.5,31.5C 86.5,45.1667 86.5,58.8333 86.5,72.5C 83.1667,72.5 79.8333,72.5 76.5,72.5C 75.7375,71.7321 74.7375,71.2321 73.5,71C 74.1667,70.6667 74.8333,70.3333 75.5,70C 73.8767,67.9205 72.3767,65.7538 71,63.5C 69.8419,63.9981 69.0085,64.8315 68.5,66C 69.4394,67.9439 70.7727,69.6106 72.5,71C 69.4698,71.2882 66.6365,71.4549 64,71.5C 63.4954,69.4817 62.9954,67.4817 62.5,65.5C 63.7079,66.2341 65.0413,66.5674 66.5,66.5C 66.335,63.1501 66.5017,59.8168 67,56.5C 67.7083,57.3805 68.5416,58.0472 69.5,58.5C 70.9228,60.5449 72.9228,61.5449 75.5,61.5C 75.5,56.1667 75.5,50.8333 75.5,45.5C 77.0263,48.8926 79.693,50.2259 83.5,49.5C 83.6222,44.4325 84.2889,39.4325 85.5,34.5C 85.4573,33.5836 85.1239,32.9169 84.5,32.5C 84.5,31.8333 84.5,31.1667 84.5,30.5 Z"/></g>
<g><path style="opacity:1" fill="#0d7915" d="M 46.5,50.5 C 47.1667,50.8333 47.8333,51.1667 48.5,51.5C 48.1872,55.0419 48.5206,58.3752 49.5,61.5C 49.8333,62.8333 50.1667,64.1667 50.5,65.5C 50.762,66.9778 50.4287,68.3112 49.5,69.5C 45.4049,69.7727 41.7383,70.7727 38.5,72.5C 35.8333,72.5 33.1667,72.5 30.5,72.5C 29.9717,71.2794 29.305,70.1127 28.5,69C 30.7513,69.2068 33.0846,69.3735 35.5,69.5C 35.7214,66.7212 35.388,64.0545 34.5,61.5C 35.8333,61.5 37.1667,61.5 38.5,61.5C 38.5,59.5 38.5,57.5 38.5,55.5C 42.7464,56.2394 45.413,54.5727 46.5,50.5 Z"/></g>
<g><path style="opacity:1" fill="#116f16" d="M 58.5,46.5 C 59.1667,46.8333 59.8333,47.1667 60.5,47.5C 60.5,52.1667 60.5,56.8333 60.5,61.5C 61.8333,61.5 63.1667,61.5 64.5,61.5C 63.2476,48.9649 64.9143,47.9649 69.5,58.5C 68.5416,58.0472 67.7083,57.3805 67,56.5C 66.5017,59.8168 66.335,63.1501 66.5,66.5C 65.0413,66.5674 63.7079,66.2341 62.5,65.5C 62.5386,64.2438 62.0386,63.2438 61,62.5C 60.2228,65.4294 60.3895,68.2628 61.5,71C 60.2068,71.49 58.8734,71.6567 57.5,71.5C 57.5,70.5 57.5,69.5 57.5,68.5C 54.5466,68.8504 52.2133,67.8504 50.5,65.5C 50.1667,64.1667 49.8333,62.8333 49.5,61.5C 52.5,61.5 55.5,61.5 58.5,61.5C 58.5,60.1667 58.5,58.8333 58.5,57.5C 56.5,57.5 54.5,57.5 52.5,57.5C 52.5,56.5 52.5,55.5 52.5,54.5C 54.1667,54.5 55.8333,54.5 57.5,54.5C 57.5,53.5 57.5,52.5 57.5,51.5C 55.8333,51.5 54.1667,51.5 52.5,51.5C 52.5,50.1667 52.5,48.8333 52.5,47.5C 54.7354,47.7947 56.7354,47.4614 58.5,46.5 Z"/></g>
<g><path style="opacity:0.999" fill="#0d7211" d="M 62.5,65.5 C 62.9954,67.4817 63.4954,69.4817 64,71.5C 66.6365,71.4549 69.4698,71.2882 72.5,71C 70.7727,69.6106 69.4394,67.9439 68.5,66C 69.0085,64.8315 69.8419,63.9981 71,63.5C 72.3767,65.7538 73.8767,67.9205 75.5,70C 74.8333,70.3333 74.1667,70.6667 73.5,71C 74.7375,71.2321 75.7375,71.7321 76.5,72.5C 63.8333,72.5 51.1667,72.5 38.5,72.5C 41.7383,70.7727 45.4049,69.7727 49.5,69.5C 50.4287,68.3112 50.762,66.9778 50.5,65.5C 52.2133,67.8504 54.5466,68.8504 57.5,68.5C 57.5,69.5 57.5,70.5 57.5,71.5C 58.8734,71.6567 60.2068,71.49 61.5,71C 60.3895,68.2628 60.2228,65.4294 61,62.5C 62.0386,63.2438 62.5386,64.2438 62.5,65.5 Z"/></g>
<g><path style="opacity:1" fill="#11831b" d="M 16.5,50.5 C 15.8144,54.287 16.8144,57.4537 19.5,60C 27.9916,62.2717 31.9916,59.105 31.5,50.5C 32.9819,53.6881 33.9819,57.0214 34.5,60.5C 34.5,60.8333 34.5,61.1667 34.5,61.5C 35.388,64.0545 35.7214,66.7212 35.5,69.5C 33.0846,69.3735 30.7513,69.2068 28.5,69C 29.305,70.1127 29.9717,71.2794 30.5,72.5C 23.1591,72.6663 15.8258,72.4997 8.5,72C 7.52364,65.9242 7.19031,59.7576 7.5,53.5C 11.6822,56.2481 14.6822,55.2481 16.5,50.5 Z"/></g>
<g><path style="opacity:0.988" fill="#0f6a11" d="M 7.5,31.5 C 7.5,32.1667 7.5,32.8333 7.5,33.5C 7.5,33.8333 7.5,34.1667 7.5,34.5C 7.5,40.8333 7.5,47.1667 7.5,53.5C 7.19031,59.7576 7.52364,65.9242 8.5,72C 15.8258,72.4997 23.1591,72.6663 30.5,72.5C 33.1667,72.5 35.8333,72.5 38.5,72.5C 51.1667,72.5 63.8333,72.5 76.5,72.5C 79.8333,72.5 83.1667,72.5 86.5,72.5C 86.5,73.1667 86.5,73.8333 86.5,74.5C 86.1667,74.5 85.8333,74.5 85.5,74.5C 59.3386,73.5022 33.0053,73.1688 6.5,73.5C 6.17085,59.3234 6.50418,45.3234 7.5,31.5 Z"/></g>
<g><path style="opacity:0.803" fill="#0d3b0a" d="M 6.5,73.5 C 33.0053,73.1688 59.3386,73.5022 85.5,74.5C 85.5,74.8333 85.5,75.1667 85.5,75.5C 84.8333,75.5 84.1667,75.5 83.5,75.5C 58.8333,75.5 34.1667,75.5 9.5,75.5C 7.97306,75.573 6.97306,74.9063 6.5,73.5 Z"/></g>
<g><path style="opacity:0.004" fill="#11330c" d="M 86.5,74.5 C 87.8333,75.1667 87.8333,75.1667 86.5,74.5 Z"/></g>
<g><path style="opacity:0.004" fill="#163a0a" d="M 85.5,75.5 C 85.8333,75.5 86.1667,75.5 86.5,75.5C 86.3147,76.1701 85.9813,76.1701 85.5,75.5 Z"/></g>
<g><path style="opacity:0.004" fill="#1d3413" d="M 9.5,75.5 C 34.1667,75.5 58.8333,75.5 83.5,75.5C 83.8417,76.3382 84.5084,76.6716 85.5,76.5C 85.0825,77.2216 84.4158,77.7216 83.5,78C 58.8333,78.6667 34.1667,78.6667 9.5,78C 8.83333,77.6667 8.16667,77.3333 7.5,77C 8.4158,76.7216 9.08247,76.2216 9.5,75.5 Z"/></g>
</svg>
