<?xml version="1.0" encoding="UTF-8"?>
<!DOCTYPE svg PUBLIC "-//W3C//DTD SVG 1.1//EN" "http://www.w3.org/Graphics/SVG/1.1/DTD/svg11.dtd">
<svg xmlns="http://www.w3.org/2000/svg" version="1.1" width="64px" height="64px" style="shape-rendering:geometricPrecision; text-rendering:geometricPrecision; image-rendering:optimizeQuality; fill-rule:evenodd; clip-rule:evenodd" xmlns:xlink="http://www.w3.org/1999/xlink">
<g><path style="opacity:0.946" fill="#3fc056" d="M 29.5,3.5 C 31.7659,3.14118 33.5993,3.80784 35,5.5C 35.2038,12.2289 35.3704,18.8955 35.5,25.5C 36.3882,19.1753 37.2216,12.842 38,6.5C 39.6995,5.59391 41.5328,5.26057 43.5,5.5C 43.4418,13.5302 43.2751,21.5302 43,29.5C 44.3448,24.5866 45.1781,19.5866 45.5,14.5C 47.1667,14.5 48.8333,14.5 50.5,14.5C 50.1088,25.8615 49.2755,37.1949 48,48.5C 47.5621,51.376 46.5621,54.0427 45,56.5C 37.9401,58.0199 30.7734,58.5199 23.5,58C 16.9523,49.0789 11.2857,39.5789 6.5,29.5C 6.70931,28.914 7.04265,28.414 7.5,28C 9.5,27.3333 11.5,27.3333 13.5,28C 15.6396,30.1396 17.8063,32.3063 20,34.5C 20.4998,25.5062 20.6664,16.5062 20.5,7.5C 22.4672,7.26057 24.3005,7.59391 26,8.5C 26.5348,14.5147 27.2015,20.5147 28,26.5C 28.1994,18.7548 28.6994,11.0881 29.5,3.5 Z"/></g>
</svg>
