<?xml version="1.0" encoding="UTF-8"?>
<!DOCTYPE svg PUBLIC "-//W3C//DTD SVG 1.1//EN" "http://www.w3.org/Graphics/SVG/1.1/DTD/svg11.dtd">
<svg xmlns="http://www.w3.org/2000/svg" version="1.1" width="50px" height="50px" style="shape-rendering:geometricPrecision; text-rendering:geometricPrecision; image-rendering:optimizeQuality; fill-rule:evenodd; clip-rule:evenodd" xmlns:xlink="http://www.w3.org/1999/xlink">
<g><path style="opacity:0.994" fill="#40c056" d="M 10.5,1.5 C 19.8333,1.5 29.1667,1.5 38.5,1.5C 38.5,5.83333 38.5,10.1667 38.5,14.5C 41.5,14.5 44.5,14.5 47.5,14.5C 47.5,22.5 47.5,30.5 47.5,38.5C 44.5,38.5 41.5,38.5 38.5,38.5C 38.5,41.5 38.5,44.5 38.5,47.5C 29.1667,47.5 19.8333,47.5 10.5,47.5C 10.5,44.5 10.5,41.5 10.5,38.5C 7.5,38.5 4.5,38.5 1.5,38.5C 1.5,30.5 1.5,22.5 1.5,14.5C 4.5,14.5 7.5,14.5 10.5,14.5C 10.5,10.1667 10.5,5.83333 10.5,1.5 Z M 12.5,3.5 C 20.5,3.5 28.5,3.5 36.5,3.5C 36.5,7.16667 36.5,10.8333 36.5,14.5C 28.5,14.5 20.5,14.5 12.5,14.5C 12.5,10.8333 12.5,7.16667 12.5,3.5 Z M 39.5,20.5 C 41.337,20.6395 41.6704,21.3061 40.5,22.5C 39.7025,22.0431 39.3691,21.3764 39.5,20.5 Z M 12.5,29.5 C 20.5,29.5 28.5,29.5 36.5,29.5C 36.5,34.8333 36.5,40.1667 36.5,45.5C 28.5,45.5 20.5,45.5 12.5,45.5C 12.5,40.1667 12.5,34.8333 12.5,29.5 Z"/></g>
<g><path style="opacity:0.974" fill="#40bf56" d="M 15.5,32.5 C 21.5368,32.1707 27.5368,32.5041 33.5,33.5C 30.5,33.8333 27.5,34.1667 24.5,34.5C 21.0866,34.483 18.0866,33.8164 15.5,32.5 Z"/></g>
<g><path style="opacity:0.966" fill="#40bf56" d="M 15.5,36.5 C 20.2137,36.1734 24.8804,36.5067 29.5,37.5C 27.1667,37.8333 24.8333,38.1667 22.5,38.5C 19.7305,38.4714 17.3972,37.8048 15.5,36.5 Z"/></g>
<g><path style="opacity:0.974" fill="#40bf56" d="M 15.5,40.5 C 21.5368,40.1707 27.5368,40.5041 33.5,41.5C 30.5,41.8333 27.5,42.1667 24.5,42.5C 21.0866,42.483 18.0866,41.8164 15.5,40.5 Z"/></g>
</svg>
