<?xml version="1.0" encoding="UTF-8"?>
<!DOCTYPE svg PUBLIC "-//W3C//DTD SVG 1.1//EN" "http://www.w3.org/Graphics/SVG/1.1/DTD/svg11.dtd">
<svg xmlns="http://www.w3.org/2000/svg" version="1.1" width="24px" height="24px" style="shape-rendering:geometricPrecision; text-rendering:geometricPrecision; image-rendering:optimizeQuality; fill-rule:evenodd; clip-rule:evenodd" xmlns:xlink="http://www.w3.org/1999/xlink">
<g><path style="opacity:0.929" fill="#3fc057" d="M 0.5,3.5 C 13.8333,8.83333 13.8333,14.1667 0.5,19.5C 0.5,14.1667 0.5,8.83333 0.5,3.5 Z"/></g>
<g><path style="opacity:0.988" fill="#3fbf56" d="M 11.5,3.5 C 13.1667,3.5 14.8333,3.5 16.5,3.5C 16.5,8.83333 16.5,14.1667 16.5,19.5C 14.8333,19.5 13.1667,19.5 11.5,19.5C 11.5,14.1667 11.5,8.83333 11.5,3.5 Z"/></g>
<g><path style="opacity:0.988" fill="#3fbf56" d="M 17.5,3.5 C 19.1667,3.5 20.8333,3.5 22.5,3.5C 22.5,8.83333 22.5,14.1667 22.5,19.5C 20.8333,19.5 19.1667,19.5 17.5,19.5C 17.5,14.1667 17.5,8.83333 17.5,3.5 Z"/></g>
</svg>
