<?xml version="1.0" encoding="UTF-8"?>
<!DOCTYPE svg PUBLIC "-//W3C//DTD SVG 1.1//EN" "http://www.w3.org/Graphics/SVG/1.1/DTD/svg11.dtd">
<svg xmlns="http://www.w3.org/2000/svg" version="1.1" width="64px" height="64px" style="shape-rendering:geometricPrecision; text-rendering:geometricPrecision; image-rendering:optimizeQuality; fill-rule:evenodd; clip-rule:evenodd" xmlns:xlink="http://www.w3.org/1999/xlink">
<g><path style="opacity:0.986" fill="#3fbf56" d="M 23.5,0.5 C 28.8333,0.5 34.1667,0.5 39.5,0.5C 39.5,2.16667 39.5,3.83333 39.5,5.5C 34.1667,5.5 28.8333,5.5 23.5,5.5C 23.5,3.83333 23.5,2.16667 23.5,0.5 Z"/></g>
<g><path style="opacity:0.959" fill="#40c056" d="M 23.5,6.5 C 28.8333,6.5 34.1667,6.5 39.5,6.5C 39.5,8.5 39.5,10.5 39.5,12.5C 47.0871,12.1858 54.5871,12.5192 62,13.5C 62.6667,26.8333 62.6667,40.1667 62,53.5C 54.5795,54.3158 47.0795,54.8158 39.5,55C 41.3025,57.1025 43.6359,57.9358 46.5,57.5C 46.5,59.1667 46.5,60.8333 46.5,62.5C 36.5,62.5 26.5,62.5 16.5,62.5C 16.5,60.8333 16.5,59.1667 16.5,57.5C 19.3641,57.9358 21.6975,57.1025 23.5,55C 15.9205,54.8158 8.42052,54.3158 1,53.5C 0.333333,40.1667 0.333333,26.8333 1,13.5C 8.41287,12.5192 15.9129,12.1858 23.5,12.5C 23.5,10.5 23.5,8.5 23.5,6.5 Z M 25.5,8.5 C 29.5,8.5 33.5,8.5 37.5,8.5C 37.5,15.1667 37.5,21.8333 37.5,28.5C 38.8734,28.3433 40.2068,28.51 41.5,29C 38.3242,33.0065 34.9908,36.8398 31.5,40.5C 28.0092,36.8398 24.6758,33.0065 21.5,29C 22.7932,28.51 24.1266,28.3433 25.5,28.5C 25.5,21.8333 25.5,15.1667 25.5,8.5 Z M 4.5,14.5 C 10.8333,14.5 17.1667,14.5 23.5,14.5C 23.5,18.5 23.5,22.5 23.5,26.5C 21.5,26.5 19.5,26.5 17.5,26.5C 17.954,29.1398 19.1207,31.4732 21,33.5C 24.0655,37.7288 27.5655,41.3955 31.5,44.5C 35.4345,41.3955 38.9345,37.7288 42,33.5C 43.8793,31.4732 45.046,29.1398 45.5,26.5C 43.5,26.5 41.5,26.5 39.5,26.5C 39.5,22.5 39.5,18.5 39.5,14.5C 45.8421,14.3338 52.1754,14.5005 58.5,15C 59,15.5 59.5,16 60,16.5C 60.4998,26.4944 60.6665,36.4944 60.5,46.5C 41.1667,46.5 21.8333,46.5 2.5,46.5C 2.33352,36.4944 2.50019,26.4944 3,16.5C 3.71719,15.9558 4.21719,15.2891 4.5,14.5 Z M 2.5,48.5 C 21.8448,48.1671 41.1782,48.5004 60.5,49.5C 60.0233,50.4776 59.3567,51.3109 58.5,52C 40.5,52.6667 22.5,52.6667 4.5,52C 3.17723,51.1841 2.51056,50.0174 2.5,48.5 Z M 26.5,54.5 C 30.6348,53.8898 34.3014,54.7232 37.5,57C 33.5,57.6667 29.5,57.6667 25.5,57C 26.2524,56.3292 26.5858,55.4959 26.5,54.5 Z"/></g>
</svg>
