<?xml version="1.0" encoding="UTF-8"?>
<!DOCTYPE svg PUBLIC "-//W3C//DTD SVG 1.1//EN" "http://www.w3.org/Graphics/SVG/1.1/DTD/svg11.dtd">
<svg xmlns="http://www.w3.org/2000/svg" version="1.1" width="64px" height="64px" style="shape-rendering:geometricPrecision; text-rendering:geometricPrecision; image-rendering:optimizeQuality; fill-rule:evenodd; clip-rule:evenodd" xmlns:xlink="http://www.w3.org/1999/xlink">
<g><path style="opacity:0.996" fill="#3fbf57" d="M 7.5,7.5 C 12.1667,7.5 16.8333,7.5 21.5,7.5C 18.1474,18.8033 22.1474,23.4699 33.5,21.5C 44.8526,23.4699 48.8526,18.8033 45.5,7.5C 49.594,6.70463 52.7607,8.03796 55,11.5C 55.4999,26.1629 55.6666,40.8295 55.5,55.5C 39.5,55.5 23.5,55.5 7.5,55.5C 7.5,39.5 7.5,23.5 7.5,7.5 Z M 18.5,27.5 C 27.1731,27.3336 35.8397,27.5002 44.5,28C 45,28.5 45.5,29 46,29.5C 46.6667,36.1667 46.6667,42.8333 46,49.5C 45.5,50 45,50.5 44.5,51C 35.8333,51.6667 27.1667,51.6667 18.5,51C 18,50.5 17.5,50 17,49.5C 16.3333,42.8333 16.3333,36.1667 17,29.5C 17.7172,28.9558 18.2172,28.2891 18.5,27.5 Z M 10.5,48.5 C 11.5,48.5 12.5,48.5 13.5,48.5C 13.5,49.5 13.5,50.5 13.5,51.5C 12.5,51.5 11.5,51.5 10.5,51.5C 10.5,50.5 10.5,49.5 10.5,48.5 Z M 49.5,48.5 C 50.5,48.5 51.5,48.5 52.5,48.5C 52.5,49.5 52.5,50.5 52.5,51.5C 51.5,51.5 50.5,51.5 49.5,51.5C 49.5,50.5 49.5,49.5 49.5,48.5 Z"/></g>
<g><path style="opacity:1" fill="#40c056" d="M 33.5,7.5 C 35.5,7.5 37.5,7.5 39.5,7.5C 39.5,11.1667 39.5,14.8333 39.5,18.5C 37.5,18.5 35.5,18.5 33.5,18.5C 33.5,14.8333 33.5,11.1667 33.5,7.5 Z"/></g>
</svg>
