<?xml version="1.0" encoding="UTF-8"?>
<!DOCTYPE svg PUBLIC "-//W3C//DTD SVG 1.1//EN" "http://www.w3.org/Graphics/SVG/1.1/DTD/svg11.dtd">
<svg xmlns="http://www.w3.org/2000/svg" version="1.1" width="50px" height="50px" style="shape-rendering:geometricPrecision; text-rendering:geometricPrecision; image-rendering:optimizeQuality; fill-rule:evenodd; clip-rule:evenodd" xmlns:xlink="http://www.w3.org/1999/xlink">
<g><path style="opacity:1" fill="#40c056" d="M 3.5,3.5 C 5.48141,16.4581 6.14808,29.7914 5.5,43.5C 18.85,43.1675 32.1833,43.5008 45.5,44.5C 31.5159,45.4992 17.5159,45.8326 3.5,45.5C 3.5,31.5 3.5,17.5 3.5,3.5 Z"/></g>
<g><path style="opacity:0.766" fill="#3fbf56" d="M 11.5,5.5 C 13.337,5.63945 13.6704,6.30612 12.5,7.5C 11.7025,7.04311 11.3691,6.37644 11.5,5.5 Z"/></g>
<g><path style="opacity:0.766" fill="#3fbf56" d="M 21.5,5.5 C 23.337,5.63945 23.6704,6.30612 22.5,7.5C 21.7025,7.04311 21.3691,6.37644 21.5,5.5 Z"/></g>
<g><path style="opacity:0.766" fill="#3fbf56" d="M 31.5,5.5 C 33.337,5.63945 33.6704,6.30612 32.5,7.5C 31.7025,7.04311 31.3691,6.37644 31.5,5.5 Z"/></g>
<g><path style="opacity:0.766" fill="#3fbf56" d="M 41.5,5.5 C 43.337,5.63945 43.6704,6.30612 42.5,7.5C 41.7025,7.04311 41.3691,6.37644 41.5,5.5 Z"/></g>
<g><path style="opacity:0.825" fill="#3fc056" d="M 41.5,13.5 C 42.8333,13.5 44.1667,13.5 45.5,13.5C 45.6567,14.8734 45.49,16.2068 45,17.5C 41.5,21 38,24.5 34.5,28C 33.1667,28.6667 31.8333,28.6667 30.5,28C 27.9841,25.3167 25.3174,22.8167 22.5,20.5C 18.6819,23.8176 15.0152,27.3176 11.5,31C 10.2068,31.49 8.87344,31.6567 7.5,31.5C 7.34332,30.1266 7.50999,28.7932 8,27.5C 12.1667,23.3333 16.3333,19.1667 20.5,15C 21.8333,14.3333 23.1667,14.3333 24.5,15C 27.0159,17.6833 29.6826,20.1833 32.5,22.5C 35.8544,19.8123 38.8544,16.8123 41.5,13.5 Z"/></g>
<g><path style="opacity:0.766" fill="#3fbf56" d="M 11.5,15.5 C 13.337,15.6395 13.6704,16.3061 12.5,17.5C 11.7025,17.0431 11.3691,16.3764 11.5,15.5 Z"/></g>
<g><path style="opacity:0.766" fill="#3fbf56" d="M 31.5,15.5 C 33.337,15.6395 33.6704,16.3061 32.5,17.5C 31.7025,17.0431 31.3691,16.3764 31.5,15.5 Z"/></g>
<g><path style="opacity:0.766" fill="#3fbf56" d="M 21.5,25.5 C 23.337,25.6395 23.6704,26.3061 22.5,27.5C 21.7025,27.0431 21.3691,26.3764 21.5,25.5 Z"/></g>
<g><path style="opacity:0.766" fill="#3fbf56" d="M 41.5,25.5 C 43.337,25.6395 43.6704,26.3061 42.5,27.5C 41.7025,27.0431 41.3691,26.3764 41.5,25.5 Z"/></g>
<g><path style="opacity:0.766" fill="#3fbf56" d="M 11.5,35.5 C 13.337,35.6395 13.6704,36.3061 12.5,37.5C 11.7025,37.0431 11.3691,36.3764 11.5,35.5 Z"/></g>
<g><path style="opacity:0.766" fill="#3fbf56" d="M 21.5,35.5 C 23.337,35.6395 23.6704,36.3061 22.5,37.5C 21.7025,37.0431 21.3691,36.3764 21.5,35.5 Z"/></g>
<g><path style="opacity:0.766" fill="#3fbf56" d="M 31.5,35.5 C 33.337,35.6395 33.6704,36.3061 32.5,37.5C 31.7025,37.0431 31.3691,36.3764 31.5,35.5 Z"/></g>
<g><path style="opacity:0.766" fill="#3fbf56" d="M 41.5,35.5 C 43.337,35.6395 43.6704,36.3061 42.5,37.5C 41.7025,37.0431 41.3691,36.3764 41.5,35.5 Z"/></g>
</svg>
