<?xml version="1.0" encoding="UTF-8"?>
<!DOCTYPE svg PUBLIC "-//W3C//DTD SVG 1.1//EN" "http://www.w3.org/Graphics/SVG/1.1/DTD/svg11.dtd">
<svg xmlns="http://www.w3.org/2000/svg" version="1.1" width="80px" height="80px" style="shape-rendering:geometricPrecision; text-rendering:geometricPrecision; image-rendering:optimizeQuality; fill-rule:evenodd; clip-rule:evenodd" xmlns:xlink="http://www.w3.org/1999/xlink">
<g><path style="opacity:0.977" fill="#3fbf56" d="M 10.5,9.5 C 30.0761,9.17373 49.5761,9.50707 69,10.5C 69.8258,30.0733 69.6591,49.5733 68.5,69C 48.9267,69.8258 29.4267,69.6591 10,68.5C 9.17999,48.7601 9.34665,29.0935 10.5,9.5 Z M 13.5,11.5 C 30.8365,11.3334 48.1699,11.5001 65.5,12C 66,12.5 66.5,13 67,13.5C 67.6667,30.8333 67.6667,48.1667 67,65.5C 66.5,66 66,66.5 65.5,67C 48.1667,67.6667 30.8333,67.6667 13.5,67C 13,66.5 12.5,66 12,65.5C 11.3333,48.1667 11.3333,30.8333 12,13.5C 12.7172,12.9558 13.2172,12.2891 13.5,11.5 Z M 26.5,26.5 C 35.1731,26.3336 43.8397,26.5002 52.5,27C 53.344,35.2612 53.6774,43.7612 53.5,52.5C 44.1667,52.5 34.8333,52.5 25.5,52.5C 25.3387,43.5952 25.672,34.9286 26.5,26.5 Z"/></g>
<g><path style="opacity:0.766" fill="#3fbf56" d="M 16.5,16.5 C 18.337,16.6395 18.6704,17.3061 17.5,18.5C 16.7025,18.0431 16.3691,17.3764 16.5,16.5 Z"/></g>
<g><path style="opacity:0.766" fill="#3fbf56" d="M 20.5,16.5 C 22.337,16.6395 22.6704,17.3061 21.5,18.5C 20.7025,18.0431 20.3691,17.3764 20.5,16.5 Z"/></g>
<g><path style="opacity:0.766" fill="#3fbf56" d="M 24.5,16.5 C 26.337,16.6395 26.6704,17.3061 25.5,18.5C 24.7025,18.0431 24.3691,17.3764 24.5,16.5 Z"/></g>
<g><path style="opacity:0.766" fill="#3fbf56" d="M 28.5,16.5 C 30.337,16.6395 30.6704,17.3061 29.5,18.5C 28.7025,18.0431 28.3691,17.3764 28.5,16.5 Z"/></g>
<g><path style="opacity:0.766" fill="#3fbf56" d="M 32.5,16.5 C 34.337,16.6395 34.6704,17.3061 33.5,18.5C 32.7025,18.0431 32.3691,17.3764 32.5,16.5 Z"/></g>
<g><path style="opacity:0.766" fill="#3fbf56" d="M 36.5,16.5 C 38.337,16.6395 38.6704,17.3061 37.5,18.5C 36.7025,18.0431 36.3691,17.3764 36.5,16.5 Z"/></g>
<g><path style="opacity:0.766" fill="#3fbf56" d="M 40.5,16.5 C 42.337,16.6395 42.6704,17.3061 41.5,18.5C 40.7025,18.0431 40.3691,17.3764 40.5,16.5 Z"/></g>
<g><path style="opacity:0.766" fill="#3fbf56" d="M 44.5,16.5 C 46.337,16.6395 46.6704,17.3061 45.5,18.5C 44.7025,18.0431 44.3691,17.3764 44.5,16.5 Z"/></g>
<g><path style="opacity:0.766" fill="#3fbf56" d="M 48.5,16.5 C 50.337,16.6395 50.6704,17.3061 49.5,18.5C 48.7025,18.0431 48.3691,17.3764 48.5,16.5 Z"/></g>
<g><path style="opacity:0.766" fill="#3fbf56" d="M 52.5,16.5 C 54.337,16.6395 54.6704,17.3061 53.5,18.5C 52.7025,18.0431 52.3691,17.3764 52.5,16.5 Z"/></g>
<g><path style="opacity:0.766" fill="#3fbf56" d="M 56.5,16.5 C 58.337,16.6395 58.6704,17.3061 57.5,18.5C 56.7025,18.0431 56.3691,17.3764 56.5,16.5 Z"/></g>
<g><path style="opacity:0.766" fill="#3fbf56" d="M 60.5,16.5 C 62.337,16.6395 62.6704,17.3061 61.5,18.5C 60.7025,18.0431 60.3691,17.3764 60.5,16.5 Z"/></g>
<g><path style="opacity:0.766" fill="#3fbf56" d="M 16.5,20.5 C 18.337,20.6395 18.6704,21.3061 17.5,22.5C 16.7025,22.0431 16.3691,21.3764 16.5,20.5 Z"/></g>
<g><path style="opacity:0.766" fill="#3fbf56" d="M 60.5,20.5 C 62.337,20.6395 62.6704,21.3061 61.5,22.5C 60.7025,22.0431 60.3691,21.3764 60.5,20.5 Z"/></g>
<g><path style="opacity:0.766" fill="#3fbf56" d="M 16.5,24.5 C 18.337,24.6395 18.6704,25.3061 17.5,26.5C 16.7025,26.0431 16.3691,25.3764 16.5,24.5 Z"/></g>
<g><path style="opacity:0.983" fill="#40c056" d="M 23.5,24.5 C 34.1667,24.5 44.8333,24.5 55.5,24.5C 55.5,34.5 55.5,44.5 55.5,54.5C 44.8333,54.5 34.1667,54.5 23.5,54.5C 23.5,44.5 23.5,34.5 23.5,24.5 Z M 26.5,26.5 C 25.672,34.9286 25.3387,43.5952 25.5,52.5C 34.8333,52.5 44.1667,52.5 53.5,52.5C 53.6774,43.7612 53.344,35.2612 52.5,27C 43.8397,26.5002 35.1731,26.3336 26.5,26.5 Z"/></g>
<g><path style="opacity:0.766" fill="#3fbf56" d="M 60.5,24.5 C 62.337,24.6395 62.6704,25.3061 61.5,26.5C 60.7025,26.0431 60.3691,25.3764 60.5,24.5 Z"/></g>
<g><path style="opacity:0.766" fill="#3fbf56" d="M 16.5,28.5 C 18.337,28.6395 18.6704,29.3061 17.5,30.5C 16.7025,30.0431 16.3691,29.3764 16.5,28.5 Z"/></g>
<g><path style="opacity:0.766" fill="#3fbf56" d="M 60.5,28.5 C 62.337,28.6395 62.6704,29.3061 61.5,30.5C 60.7025,30.0431 60.3691,29.3764 60.5,28.5 Z"/></g>
<g><path style="opacity:0.766" fill="#3fbf56" d="M 28.5,29.5 C 30.337,29.6395 30.6704,30.3061 29.5,31.5C 28.7025,31.0431 28.3691,30.3764 28.5,29.5 Z"/></g>
<g><path style="opacity:0.766" fill="#3fbf56" d="M 32.5,29.5 C 34.337,29.6395 34.6704,30.3061 33.5,31.5C 32.7025,31.0431 32.3691,30.3764 32.5,29.5 Z"/></g>
<g><path style="opacity:0.766" fill="#3fbf56" d="M 36.5,29.5 C 38.337,29.6395 38.6704,30.3061 37.5,31.5C 36.7025,31.0431 36.3691,30.3764 36.5,29.5 Z"/></g>
<g><path style="opacity:0.766" fill="#3fbf56" d="M 40.5,29.5 C 42.337,29.6395 42.6704,30.3061 41.5,31.5C 40.7025,31.0431 40.3691,30.3764 40.5,29.5 Z"/></g>
<g><path style="opacity:0.766" fill="#3fbf56" d="M 44.5,29.5 C 46.337,29.6395 46.6704,30.3061 45.5,31.5C 44.7025,31.0431 44.3691,30.3764 44.5,29.5 Z"/></g>
<g><path style="opacity:0.766" fill="#3fbf56" d="M 48.5,29.5 C 50.337,29.6395 50.6704,30.3061 49.5,31.5C 48.7025,31.0431 48.3691,30.3764 48.5,29.5 Z"/></g>
<g><path style="opacity:0.766" fill="#3fbf56" d="M 16.5,32.5 C 18.337,32.6395 18.6704,33.3061 17.5,34.5C 16.7025,34.0431 16.3691,33.3764 16.5,32.5 Z"/></g>
<g><path style="opacity:0.766" fill="#3fbf56" d="M 60.5,32.5 C 62.337,32.6395 62.6704,33.3061 61.5,34.5C 60.7025,34.0431 60.3691,33.3764 60.5,32.5 Z"/></g>
<g><path style="opacity:0.766" fill="#3fbf56" d="M 16.5,36.5 C 18.337,36.6395 18.6704,37.3061 17.5,38.5C 16.7025,38.0431 16.3691,37.3764 16.5,36.5 Z"/></g>
<g><path style="opacity:0.766" fill="#3fbf56" d="M 60.5,36.5 C 62.337,36.6395 62.6704,37.3061 61.5,38.5C 60.7025,38.0431 60.3691,37.3764 60.5,36.5 Z"/></g>
<g><path style="opacity:0.766" fill="#3fbf56" d="M 16.5,40.5 C 18.337,40.6395 18.6704,41.3061 17.5,42.5C 16.7025,42.0431 16.3691,41.3764 16.5,40.5 Z"/></g>
<g><path style="opacity:0.766" fill="#3fbf56" d="M 60.5,40.5 C 62.337,40.6395 62.6704,41.3061 61.5,42.5C 60.7025,42.0431 60.3691,41.3764 60.5,40.5 Z"/></g>
<g><path style="opacity:0.766" fill="#3fbf56" d="M 16.5,44.5 C 18.337,44.6395 18.6704,45.3061 17.5,46.5C 16.7025,46.0431 16.3691,45.3764 16.5,44.5 Z"/></g>
<g><path style="opacity:0.766" fill="#3fbf56" d="M 60.5,44.5 C 62.337,44.6395 62.6704,45.3061 61.5,46.5C 60.7025,46.0431 60.3691,45.3764 60.5,44.5 Z"/></g>
<g><path style="opacity:0.766" fill="#3fbf56" d="M 16.5,48.5 C 18.337,48.6395 18.6704,49.3061 17.5,50.5C 16.7025,50.0431 16.3691,49.3764 16.5,48.5 Z"/></g>
<g><path style="opacity:0.766" fill="#3fbf56" d="M 60.5,48.5 C 62.337,48.6395 62.6704,49.3061 61.5,50.5C 60.7025,50.0431 60.3691,49.3764 60.5,48.5 Z"/></g>
<g><path style="opacity:0.766" fill="#3fbf56" d="M 16.5,52.5 C 18.337,52.6395 18.6704,53.3061 17.5,54.5C 16.7025,54.0431 16.3691,53.3764 16.5,52.5 Z"/></g>
<g><path style="opacity:0.766" fill="#3fbf56" d="M 60.5,52.5 C 62.337,52.6395 62.6704,53.3061 61.5,54.5C 60.7025,54.0431 60.3691,53.3764 60.5,52.5 Z"/></g>
<g><path style="opacity:0.766" fill="#3fbf56" d="M 16.5,56.5 C 18.337,56.6395 18.6704,57.3061 17.5,58.5C 16.7025,58.0431 16.3691,57.3764 16.5,56.5 Z"/></g>
<g><path style="opacity:0.766" fill="#3fbf56" d="M 60.5,56.5 C 62.337,56.6395 62.6704,57.3061 61.5,58.5C 60.7025,58.0431 60.3691,57.3764 60.5,56.5 Z"/></g>
<g><path style="opacity:0.766" fill="#3fbf56" d="M 16.5,60.5 C 18.337,60.6395 18.6704,61.3061 17.5,62.5C 16.7025,62.0431 16.3691,61.3764 16.5,60.5 Z"/></g>
<g><path style="opacity:0.766" fill="#3fbf56" d="M 20.5,60.5 C 22.337,60.6395 22.6704,61.3061 21.5,62.5C 20.7025,62.0431 20.3691,61.3764 20.5,60.5 Z"/></g>
<g><path style="opacity:0.766" fill="#3fbf56" d="M 24.5,60.5 C 26.337,60.6395 26.6704,61.3061 25.5,62.5C 24.7025,62.0431 24.3691,61.3764 24.5,60.5 Z"/></g>
<g><path style="opacity:0.766" fill="#3fbf56" d="M 28.5,60.5 C 30.337,60.6395 30.6704,61.3061 29.5,62.5C 28.7025,62.0431 28.3691,61.3764 28.5,60.5 Z"/></g>
<g><path style="opacity:0.766" fill="#3fbf56" d="M 32.5,60.5 C 34.337,60.6395 34.6704,61.3061 33.5,62.5C 32.7025,62.0431 32.3691,61.3764 32.5,60.5 Z"/></g>
<g><path style="opacity:0.766" fill="#3fbf56" d="M 36.5,60.5 C 38.337,60.6395 38.6704,61.3061 37.5,62.5C 36.7025,62.0431 36.3691,61.3764 36.5,60.5 Z"/></g>
<g><path style="opacity:0.766" fill="#3fbf56" d="M 40.5,60.5 C 42.337,60.6395 42.6704,61.3061 41.5,62.5C 40.7025,62.0431 40.3691,61.3764 40.5,60.5 Z"/></g>
<g><path style="opacity:0.766" fill="#3fbf56" d="M 44.5,60.5 C 46.337,60.6395 46.6704,61.3061 45.5,62.5C 44.7025,62.0431 44.3691,61.3764 44.5,60.5 Z"/></g>
<g><path style="opacity:0.766" fill="#3fbf56" d="M 48.5,60.5 C 50.337,60.6395 50.6704,61.3061 49.5,62.5C 48.7025,62.0431 48.3691,61.3764 48.5,60.5 Z"/></g>
<g><path style="opacity:0.766" fill="#3fbf56" d="M 52.5,60.5 C 54.337,60.6395 54.6704,61.3061 53.5,62.5C 52.7025,62.0431 52.3691,61.3764 52.5,60.5 Z"/></g>
<g><path style="opacity:0.766" fill="#3fbf56" d="M 56.5,60.5 C 58.337,60.6395 58.6704,61.3061 57.5,62.5C 56.7025,62.0431 56.3691,61.3764 56.5,60.5 Z"/></g>
<g><path style="opacity:0.766" fill="#3fbf56" d="M 60.5,60.5 C 62.337,60.6395 62.6704,61.3061 61.5,62.5C 60.7025,62.0431 60.3691,61.3764 60.5,60.5 Z"/></g>
</svg>
