<?xml version="1.0" encoding="UTF-8"?>
<!DOCTYPE svg PUBLIC "-//W3C//DTD SVG 1.1//EN" "http://www.w3.org/Graphics/SVG/1.1/DTD/svg11.dtd">
<svg xmlns="http://www.w3.org/2000/svg" version="1.1" width="50px" height="50px" style="shape-rendering:geometricPrecision; text-rendering:geometricPrecision; image-rendering:optimizeQuality; fill-rule:evenodd; clip-rule:evenodd" xmlns:xlink="http://www.w3.org/1999/xlink">
<g><path style="opacity:0.979" fill="#40c057" d="M 8.5,3.5 C 19.1719,3.3335 29.8385,3.50016 40.5,4C 42.3333,5.16667 43.8333,6.66667 45,8.5C 45.6667,19.1667 45.6667,29.8333 45,40.5C 43.8333,42.3333 42.3333,43.8333 40.5,45C 29.8333,45.6667 19.1667,45.6667 8.5,45C 6.66667,43.8333 5.16667,42.3333 4,40.5C 3.33333,29.8333 3.33333,19.1667 4,8.5C 5.36569,6.63834 6.86569,4.97167 8.5,3.5 Z M 20.5,12.5 C 25.1578,11.5142 28.8245,12.8476 31.5,16.5C 34.5926,16.9981 37.4259,17.9981 40,19.5C 40.6667,24.5 40.6667,29.5 40,34.5C 39.5,35 39,35.5 38.5,36C 29.1667,36.6667 19.8333,36.6667 10.5,36C 10,35.5 9.5,35 9,34.5C 8.33333,29.5 8.33333,24.5 9,19.5C 11.5741,17.9981 14.4074,16.9981 17.5,16.5C 18.5244,15.1482 19.5244,13.8149 20.5,12.5 Z M 11.5,13.5 C 12.7562,13.4614 13.7562,13.9614 14.5,15C 13.1667,15.6667 11.8333,15.6667 10.5,15C 11.056,14.6174 11.3893,14.1174 11.5,13.5 Z M 21.5,22.5 C 28.6095,21.9037 30.6095,24.7371 27.5,31C 20.2153,31.9343 18.2153,29.1009 21.5,22.5 Z"/></g>
<g><path style="opacity:0.619" fill="#3fbf56" d="M 32.5,18.5 C 34.4646,18.9483 34.7979,19.9483 33.5,21.5C 32.6143,20.675 32.281,19.675 32.5,18.5 Z"/></g>
<g><path style="opacity:0.745" fill="#3fc154" d="M 20.5,19.5 C 28.6612,18.1715 32.4946,21.5048 32,29.5C 29.5647,34.2238 25.7314,35.7238 20.5,34C 15.2246,29.1222 15.2246,24.2888 20.5,19.5 Z M 21.5,22.5 C 18.2153,29.1009 20.2153,31.9343 27.5,31C 30.6095,24.7371 28.6095,21.9037 21.5,22.5 Z"/></g>
</svg>
