<?xml version="1.0" encoding="UTF-8"?>
<!DOCTYPE svg PUBLIC "-//W3C//DTD SVG 1.1//EN" "http://www.w3.org/Graphics/SVG/1.1/DTD/svg11.dtd">
<svg xmlns="http://www.w3.org/2000/svg" version="1.1" width="80px" height="80px" style="shape-rendering:geometricPrecision; text-rendering:geometricPrecision; image-rendering:optimizeQuality; fill-rule:evenodd; clip-rule:evenodd" xmlns:xlink="http://www.w3.org/1999/xlink">
<g><path style="opacity:0.808" fill="#40c156" d="M 42.5,6.5 C 67.4674,5.77171 76.634,17.4384 70,41.5C 63.3595,51.2737 54.1929,54.7737 42.5,52C 39.9664,51.4837 37.7998,50.317 36,48.5C 30.3473,57.1669 23.514,65.0002 15.5,72C 8.66667,73.1667 5.83333,70.3333 7,63.5C 13.9998,55.486 21.8331,48.6527 30.5,43C 22.2255,26.6574 26.2255,14.4908 42.5,6.5 Z M 55.5,10.5 C 57.3797,10.2291 58.713,10.8958 59.5,12.5C 61.4044,12.7376 62.7377,13.7376 63.5,15.5C 65.2624,16.2623 66.2624,17.5956 66.5,19.5C 67.6737,20.5137 68.3404,21.847 68.5,23.5C 69.8333,27.5 69.8333,31.5 68.5,35.5C 68.3404,37.153 67.6737,38.4863 66.5,39.5C 66.2624,41.4044 65.2624,42.7377 63.5,43.5C 62.7377,45.2624 61.4044,46.2624 59.5,46.5C 58.4863,47.6737 57.153,48.3404 55.5,48.5C 51.5,49.8333 47.5,49.8333 43.5,48.5C 41.6203,48.7709 40.287,48.1042 39.5,46.5C 37.5956,46.2624 36.2623,45.2624 35.5,43.5C 33.7376,42.7377 32.7376,41.4044 32.5,39.5C 30.8958,38.713 30.2291,37.3797 30.5,35.5C 29.1667,31.5 29.1667,27.5 30.5,23.5C 30.2291,21.6203 30.8958,20.287 32.5,19.5C 32.7376,17.5956 33.7376,16.2623 35.5,15.5C 36.2623,13.7376 37.5956,12.7376 39.5,12.5C 40.287,10.8958 41.6203,10.2291 43.5,10.5C 47.5,9.16667 51.5,9.16667 55.5,10.5 Z M 31.5,45.5 C 33.8431,46.9673 33.5097,48.3006 30.5,49.5C 30.1667,49.1667 29.8333,48.8333 29.5,48.5C 30.1925,47.4822 30.8592,46.4822 31.5,45.5 Z M 26.5,51.5 C 28.0847,52.0024 28.5847,53.0024 28,54.5C 23.1667,59.3333 18.3333,64.1667 13.5,69C 11.6086,69.3087 10.2752,68.4753 9.5,66.5C 10.7161,65.9041 12.0494,65.7374 13.5,66C 14.2524,65.3292 14.5858,64.4959 14.5,63.5C 16.5,63.5 17.5,62.5 17.5,60.5C 19.5,60.5 20.5,59.5 20.5,57.5C 22.5,57.5 23.5,56.5 23.5,54.5C 25.5,54.5 26.5,53.5 26.5,51.5 Z"/></g>
<g><path style="opacity:0.766" fill="#3fbf56" d="M 48.5,10.5 C 50.337,10.6395 50.6704,11.3061 49.5,12.5C 48.7025,12.0431 48.3691,11.3764 48.5,10.5 Z"/></g>
<g><path style="opacity:0.442" fill="#3ec652" d="M 43.5,10.5 C 44.5,10.5 45.5,10.5 46.5,10.5C 46.5,11.5 46.5,12.5 46.5,13.5C 45.5,13.5 44.5,13.5 43.5,13.5C 43.5,12.5 43.5,11.5 43.5,10.5 Z"/></g>
<g><path style="opacity:0.6" fill="#3dc652" d="M 55.5,10.5 C 55.5,11.5 55.5,12.5 55.5,13.5C 54.5,13.5 53.5,13.5 52.5,13.5C 52.5,12.5 52.5,11.5 52.5,10.5C 53.5,10.5 54.5,10.5 55.5,10.5 Z"/></g>
<g><path style="opacity:0.565" fill="#3fbf55" d="M 39.5,12.5 C 41.4646,12.9483 41.7979,13.9483 40.5,15.5C 39.6143,14.675 39.281,13.675 39.5,12.5 Z"/></g>
<g><path style="opacity:0.565" fill="#3fbf56" d="M 59.5,12.5 C 59.719,13.675 59.3857,14.675 58.5,15.5C 57.2021,13.9483 57.5354,12.9483 59.5,12.5 Z"/></g>
<g><path style="opacity:0.643" fill="#3fc055" d="M 35.5,15.5 C 38.9571,15.6672 39.2904,16.6672 36.5,18.5C 35.6143,17.675 35.281,16.675 35.5,15.5 Z"/></g>
<g><path style="opacity:0.49" fill="#40c055" d="M 63.5,15.5 C 63.3328,18.9571 62.3328,19.2904 60.5,16.5C 61.325,15.6143 62.325,15.281 63.5,15.5 Z"/></g>
<g><path style="opacity:0.507" fill="#3fbf56" d="M 32.5,19.5 C 33.675,19.281 34.675,19.6143 35.5,20.5C 33.9483,21.7979 32.9483,21.4646 32.5,19.5 Z"/></g>
<g><path style="opacity:0.649" fill="#3ebf56" d="M 66.5,19.5 C 66.0517,21.4646 65.0517,21.7979 63.5,20.5C 64.325,19.6143 65.325,19.281 66.5,19.5 Z"/></g>
<g><path style="opacity:0.473" fill="#3ec65a" d="M 30.5,23.5 C 31.5,23.5 32.5,23.5 33.5,23.5C 33.5,24.5 33.5,25.5 33.5,26.5C 32.5,26.5 31.5,26.5 30.5,26.5C 30.5,25.5 30.5,24.5 30.5,23.5 Z"/></g>
<g><path style="opacity:0.529" fill="#3cc659" d="M 68.5,23.5 C 68.5,24.5 68.5,25.5 68.5,26.5C 67.5,26.5 66.5,26.5 65.5,26.5C 65.5,25.5 65.5,24.5 65.5,23.5C 66.5,23.5 67.5,23.5 68.5,23.5 Z"/></g>
<g><path style="opacity:0.766" fill="#3fbf56" d="M 30.5,28.5 C 32.337,28.6395 32.6704,29.3061 31.5,30.5C 30.7025,30.0431 30.3691,29.3764 30.5,28.5 Z"/></g>
<g><path style="opacity:1" fill="#40c056" d="M 40.5,28.5 C 46.5368,28.1707 52.5368,28.5041 58.5,29.5C 55.5,29.8333 52.5,30.1667 49.5,30.5C 46.0866,30.483 43.0866,29.8164 40.5,28.5 Z"/></g>
<g><path style="opacity:0.766" fill="#3fbf56" d="M 66.5,28.5 C 68.337,28.6395 68.6704,29.3061 67.5,30.5C 66.7025,30.0431 66.3691,29.3764 66.5,28.5 Z"/></g>
<g><path style="opacity:0.544" fill="#3ec55b" d="M 30.5,35.5 C 30.5,34.5 30.5,33.5 30.5,32.5C 31.5,32.5 32.5,32.5 33.5,32.5C 33.5,33.5 33.5,34.5 33.5,35.5C 32.5,35.5 31.5,35.5 30.5,35.5 Z"/></g>
<g><path style="opacity:0.446" fill="#3dc55a" d="M 68.5,35.5 C 67.5,35.5 66.5,35.5 65.5,35.5C 65.5,34.5 65.5,33.5 65.5,32.5C 66.5,32.5 67.5,32.5 68.5,32.5C 68.5,33.5 68.5,34.5 68.5,35.5 Z"/></g>
<g><path style="opacity:0.654" fill="#3fbf56" d="M 32.5,39.5 C 32.9483,37.5354 33.9483,37.2021 35.5,38.5C 34.675,39.3857 33.675,39.719 32.5,39.5 Z"/></g>
<g><path style="opacity:0.651" fill="#3fbf56" d="M 66.5,39.5 C 65.325,39.719 64.325,39.3857 63.5,38.5C 65.0517,37.2021 66.0517,37.5354 66.5,39.5 Z"/></g>
<g><path style="opacity:0.557" fill="#3ec054" d="M 35.5,43.5 C 35.6672,40.0429 36.6672,39.7096 38.5,42.5C 37.675,43.3857 36.675,43.719 35.5,43.5 Z"/></g>
<g><path style="opacity:0.555" fill="#40c058" d="M 63.5,43.5 C 60.0429,43.3328 59.7096,42.3328 62.5,40.5C 63.3857,41.325 63.719,42.325 63.5,43.5 Z"/></g>
<g><path style="opacity:0.566" fill="#3fbf56" d="M 39.5,46.5 C 39.281,45.325 39.6143,44.325 40.5,43.5C 41.7979,45.0517 41.4646,46.0517 39.5,46.5 Z"/></g>
<g><path style="opacity:0.508" fill="#40bf56" d="M 59.5,46.5 C 57.5354,46.0517 57.2021,45.0517 58.5,43.5C 59.3857,44.325 59.719,45.325 59.5,46.5 Z"/></g>
<g><path style="opacity:0.545" fill="#3cc659" d="M 43.5,48.5 C 43.5,47.5 43.5,46.5 43.5,45.5C 44.5,45.5 45.5,45.5 46.5,45.5C 46.5,46.5 46.5,47.5 46.5,48.5C 45.5,48.5 44.5,48.5 43.5,48.5 Z"/></g>
<g><path style="opacity:0.545" fill="#3dc659" d="M 55.5,48.5 C 54.5,48.5 53.5,48.5 52.5,48.5C 52.5,47.5 52.5,46.5 52.5,45.5C 53.5,45.5 54.5,45.5 55.5,45.5C 55.5,46.5 55.5,47.5 55.5,48.5 Z"/></g>
<g><path style="opacity:0.766" fill="#3fbf56" d="M 48.5,46.5 C 50.337,46.6395 50.6704,47.3061 49.5,48.5C 48.7025,48.0431 48.3691,47.3764 48.5,46.5 Z"/></g>
</svg>
